<?xml version="1.0" encoding="UTF-8" standalone="no"?>
<!DOCTYPE svg PUBLIC "-//W3C//DTD SVG 1.1//EN"
 "http://www.w3.org/Graphics/SVG/1.1/DTD/svg11.dtd">
<!-- Generated by graphviz version 9.0.0 (20230911.1827)
 -->
<!-- Pages: 1 -->
<svg width="465pt" height="1106pt"
 viewBox="0.00 0.00 465.11 1106.00" xmlns="http://www.w3.org/2000/svg" xmlns:xlink="http://www.w3.org/1999/xlink">
<g id="graph0" class="graph" transform="scale(1 1) rotate(0) translate(4 1102)">
<polygon fill="white" stroke="none" points="-4,4 -4,-1102 461.11,-1102 461.11,4 -4,4"/>
<!-- 001000 -->
<g id="node1" class="node">
<title>001000</title>
<ellipse fill="none" stroke="black" cx="188.56" cy="-1080" rx="38.56" ry="18"/>
<text text-anchor="middle" x="188.56" y="-1074.95" font-family="Times,serif" font-size="14.00">001000</text>
</g>
<!-- 017005 -->
<g id="node2" class="node">
<title>017005</title>
<ellipse fill="none" stroke="black" cx="188.56" cy="-991.5" rx="38.56" ry="18"/>
<text text-anchor="middle" x="188.56" y="-986.45" font-family="Times,serif" font-size="14.00">017005</text>
</g>
<!-- 001000&#45;&gt;017005 -->
<g id="edge1" class="edge">
<title>001000&#45;&gt;017005</title>
<path fill="none" stroke="black" d="M188.56,-1061.91C188.56,-1050.26 188.56,-1034.55 188.56,-1021.02"/>
<polygon fill="black" stroke="black" points="192.06,-1021.36 188.56,-1011.36 185.06,-1021.36 192.06,-1021.36"/>
<text text-anchor="middle" x="195.31" y="-1030.7" font-family="Times,serif" font-size="14.00">61</text>
</g>
<!-- 013035 -->
<g id="node3" class="node">
<title>013035</title>
<ellipse fill="none" stroke="black" cx="141.56" cy="-903" rx="38.56" ry="18"/>
<text text-anchor="middle" x="141.56" y="-897.95" font-family="Times,serif" font-size="14.00">013035</text>
</g>
<!-- 017005&#45;&gt;013035 -->
<g id="edge2" class="edge">
<title>017005&#45;&gt;013035</title>
<path fill="none" stroke="black" d="M179.49,-973.82C172.9,-961.69 163.84,-945.02 156.23,-931"/>
<polygon fill="black" stroke="black" points="159.32,-929.37 151.47,-922.25 153.17,-932.71 159.32,-929.37"/>
<text text-anchor="middle" x="179.68" y="-942.2" font-family="Times,serif" font-size="14.00">278</text>
</g>
<!-- 033007 -->
<g id="node4" class="node">
<title>033007</title>
<ellipse fill="none" stroke="black" cx="236.56" cy="-903" rx="38.56" ry="18"/>
<text text-anchor="middle" x="236.56" y="-897.95" font-family="Times,serif" font-size="14.00">033007</text>
</g>
<!-- 017005&#45;&gt;033007 -->
<g id="edge3" class="edge">
<title>017005&#45;&gt;033007</title>
<path fill="none" stroke="black" d="M197.81,-973.82C204.61,-961.58 213.98,-944.69 221.8,-930.59"/>
<polygon fill="black" stroke="black" points="224.64,-932.69 226.43,-922.25 218.52,-929.29 224.64,-932.69"/>
<text text-anchor="middle" x="224.31" y="-942.2" font-family="Times,serif" font-size="14.00">78</text>
</g>
<!-- 043043 -->
<g id="node5" class="node">
<title>043043</title>
<ellipse fill="none" stroke="black" cx="203.56" cy="-814.5" rx="38.56" ry="18"/>
<text text-anchor="middle" x="203.56" y="-809.45" font-family="Times,serif" font-size="14.00">043043</text>
</g>
<!-- 013035&#45;&gt;043043 -->
<g id="edge19" class="edge">
<title>013035&#45;&gt;043043</title>
<path fill="none" stroke="black" d="M153.22,-885.73C162.25,-873.12 174.94,-855.43 185.31,-840.95"/>
<polygon fill="black" stroke="black" points="187.87,-843.39 190.85,-833.22 182.18,-839.31 187.87,-843.39"/>
<text text-anchor="middle" x="188.68" y="-853.7" font-family="Times,serif" font-size="14.00">218</text>
</g>
<!-- 009063 -->
<g id="node16" class="node">
<title>009063</title>
<ellipse fill="none" stroke="black" cx="108.56" cy="-814.5" rx="38.56" ry="18"/>
<text text-anchor="middle" x="108.56" y="-809.45" font-family="Times,serif" font-size="14.00">009063</text>
</g>
<!-- 013035&#45;&gt;009063 -->
<g id="edge18" class="edge">
<title>013035&#45;&gt;009063</title>
<path fill="none" stroke="black" d="M135.04,-884.91C130.47,-872.94 124.27,-856.7 119.02,-842.93"/>
<polygon fill="black" stroke="black" points="122.44,-842.06 115.6,-833.97 115.9,-844.56 122.44,-842.06"/>
<text text-anchor="middle" x="138.68" y="-853.7" font-family="Times,serif" font-size="14.00">272</text>
</g>
<!-- 033007&#45;&gt;043043 -->
<g id="edge4" class="edge">
<title>033007&#45;&gt;043043</title>
<path fill="none" stroke="black" d="M230.04,-884.91C225.47,-872.94 219.27,-856.7 214.02,-842.93"/>
<polygon fill="black" stroke="black" points="217.44,-842.06 210.6,-833.97 210.9,-844.56 217.44,-842.06"/>
<text text-anchor="middle" x="233.68" y="-853.7" font-family="Times,serif" font-size="14.00">282</text>
</g>
<!-- 059019 -->
<g id="node6" class="node">
<title>059019</title>
<ellipse fill="none" stroke="black" cx="298.56" cy="-814.5" rx="38.56" ry="18"/>
<text text-anchor="middle" x="298.56" y="-809.45" font-family="Times,serif" font-size="14.00">059019</text>
</g>
<!-- 033007&#45;&gt;059019 -->
<g id="edge5" class="edge">
<title>033007&#45;&gt;059019</title>
<path fill="none" stroke="black" d="M248.22,-885.73C257.25,-873.12 269.94,-855.43 280.31,-840.95"/>
<polygon fill="black" stroke="black" points="282.87,-843.39 285.85,-833.22 277.18,-839.31 282.87,-843.39"/>
<text text-anchor="middle" x="282.68" y="-853.7" font-family="Times,serif" font-size="14.00">178</text>
</g>
<!-- 061033 -->
<g id="node12" class="node">
<title>061033</title>
<ellipse fill="none" stroke="black" cx="266.56" cy="-726" rx="38.56" ry="18"/>
<text text-anchor="middle" x="266.56" y="-720.95" font-family="Times,serif" font-size="14.00">061033</text>
</g>
<!-- 043043&#45;&gt;061033 -->
<g id="edge22" class="edge">
<title>043043&#45;&gt;061033</title>
<path fill="none" stroke="black" d="M215.41,-797.23C224.59,-784.62 237.48,-766.93 248.02,-752.45"/>
<polygon fill="black" stroke="black" points="250.6,-754.86 253.65,-744.71 244.94,-750.74 250.6,-754.86"/>
<text text-anchor="middle" x="248.31" y="-765.2" font-family="Times,serif" font-size="14.00">92</text>
</g>
<!-- 041061 -->
<g id="node18" class="node">
<title>041061</title>
<ellipse fill="none" stroke="black" cx="171.56" cy="-726" rx="38.56" ry="18"/>
<text text-anchor="middle" x="171.56" y="-720.95" font-family="Times,serif" font-size="14.00">041061</text>
</g>
<!-- 043043&#45;&gt;041061 -->
<g id="edge21" class="edge">
<title>043043&#45;&gt;041061</title>
<path fill="none" stroke="black" d="M197.23,-796.41C192.85,-784.56 186.92,-768.52 181.86,-754.84"/>
<polygon fill="black" stroke="black" points="185.14,-753.64 178.39,-745.47 178.58,-756.07 185.14,-753.64"/>
<text text-anchor="middle" x="197.31" y="-765.2" font-family="Times,serif" font-size="14.00">76</text>
</g>
<!-- 075017 -->
<g id="node10" class="node">
<title>075017</title>
<ellipse fill="none" stroke="black" cx="361.56" cy="-726" rx="38.56" ry="18"/>
<text text-anchor="middle" x="361.56" y="-720.95" font-family="Times,serif" font-size="14.00">075017</text>
</g>
<!-- 059019&#45;&gt;075017 -->
<g id="edge11" class="edge">
<title>059019&#45;&gt;075017</title>
<path fill="none" stroke="black" d="M310.41,-797.23C319.59,-784.62 332.48,-766.93 343.02,-752.45"/>
<polygon fill="black" stroke="black" points="345.6,-754.86 348.65,-744.71 339.94,-750.74 345.6,-754.86"/>
<text text-anchor="middle" x="345.68" y="-765.2" font-family="Times,serif" font-size="14.00">222</text>
</g>
<!-- 059019&#45;&gt;061033 -->
<g id="edge10" class="edge">
<title>059019&#45;&gt;061033</title>
<path fill="none" stroke="black" d="M292.23,-796.41C287.85,-784.56 281.92,-768.52 276.86,-754.84"/>
<polygon fill="black" stroke="black" points="280.14,-753.64 273.39,-745.47 273.58,-756.07 280.14,-753.64"/>
<text text-anchor="middle" x="291.31" y="-765.2" font-family="Times,serif" font-size="14.00">36</text>
</g>
<!-- 111015 -->
<g id="node7" class="node">
<title>111015</title>
<ellipse fill="none" stroke="black" cx="418.56" cy="-637.5" rx="38.56" ry="18"/>
<text text-anchor="middle" x="418.56" y="-632.45" font-family="Times,serif" font-size="14.00">111015</text>
</g>
<!-- 105029 -->
<g id="node8" class="node">
<title>105029</title>
<ellipse fill="none" stroke="black" cx="383.56" cy="-549" rx="38.56" ry="18"/>
<text text-anchor="middle" x="383.56" y="-543.95" font-family="Times,serif" font-size="14.00">105029</text>
</g>
<!-- 111015&#45;&gt;105029 -->
<g id="edge6" class="edge">
<title>111015&#45;&gt;105029</title>
<path fill="none" stroke="black" d="M411.64,-619.41C406.8,-607.44 400.23,-591.2 394.66,-577.43"/>
<polygon fill="black" stroke="black" points="398.02,-576.41 391.02,-568.46 391.53,-579.04 398.02,-576.41"/>
<text text-anchor="middle" x="410.31" y="-588.2" font-family="Times,serif" font-size="14.00">48</text>
</g>
<!-- 131041 -->
<g id="node9" class="node">
<title>131041</title>
<ellipse fill="none" stroke="black" cx="418.56" cy="-460.5" rx="38.56" ry="18"/>
<text text-anchor="middle" x="418.56" y="-455.45" font-family="Times,serif" font-size="14.00">131041</text>
</g>
<!-- 111015&#45;&gt;131041 -->
<g id="edge7" class="edge">
<title>111015&#45;&gt;131041</title>
<path fill="none" stroke="black" d="M422.71,-619.2C425.85,-605.22 429.89,-584.97 431.56,-567 434.45,-535.75 433.28,-527.36 427.56,-496.5 427.15,-494.33 426.69,-492.09 426.19,-489.84"/>
<polygon fill="black" stroke="black" points="429.64,-489.2 423.87,-480.31 422.84,-490.86 429.64,-489.2"/>
<text text-anchor="middle" x="442.68" y="-543.95" font-family="Times,serif" font-size="14.00">438</text>
</g>
<!-- 105029&#45;&gt;131041 -->
<g id="edge13" class="edge">
<title>105029&#45;&gt;131041</title>
<path fill="none" stroke="black" d="M390.47,-530.91C395.31,-518.94 401.89,-502.7 407.46,-488.93"/>
<polygon fill="black" stroke="black" points="410.58,-490.54 411.09,-479.96 404.09,-487.91 410.58,-490.54"/>
<text text-anchor="middle" x="413.68" y="-499.7" font-family="Times,serif" font-size="14.00">222</text>
</g>
<!-- 109053 -->
<g id="node13" class="node">
<title>109053</title>
<ellipse fill="none" stroke="black" cx="323.56" cy="-460.5" rx="38.56" ry="18"/>
<text text-anchor="middle" x="323.56" y="-455.45" font-family="Times,serif" font-size="14.00">109053</text>
</g>
<!-- 105029&#45;&gt;109053 -->
<g id="edge12" class="edge">
<title>105029&#45;&gt;109053</title>
<path fill="none" stroke="black" d="M372.27,-531.73C363.61,-519.24 351.48,-501.76 341.5,-487.37"/>
<polygon fill="black" stroke="black" points="344.43,-485.46 335.86,-479.23 338.68,-489.45 344.43,-485.46"/>
<text text-anchor="middle" x="368.68" y="-499.7" font-family="Times,serif" font-size="14.00">124</text>
</g>
<!-- 137057 -->
<g id="node17" class="node">
<title>137057</title>
<ellipse fill="none" stroke="black" cx="352.56" cy="-372" rx="38.56" ry="18"/>
<text text-anchor="middle" x="352.56" y="-366.95" font-family="Times,serif" font-size="14.00">137057</text>
</g>
<!-- 131041&#45;&gt;137057 -->
<g id="edge20" class="edge">
<title>131041&#45;&gt;137057</title>
<path fill="none" stroke="black" d="M406.14,-443.23C396.52,-430.62 383.02,-412.93 371.98,-398.45"/>
<polygon fill="black" stroke="black" points="374.91,-396.52 366.06,-390.69 369.34,-400.77 374.91,-396.52"/>
<text text-anchor="middle" x="397.31" y="-411.2" font-family="Times,serif" font-size="14.00">58</text>
</g>
<!-- 075017&#45;&gt;111015 -->
<g id="edge9" class="edge">
<title>075017&#45;&gt;111015</title>
<path fill="none" stroke="black" d="M372.55,-708.32C380.75,-695.88 392.11,-678.64 401.49,-664.41"/>
<polygon fill="black" stroke="black" points="404.19,-666.67 406.77,-656.39 398.34,-662.81 404.19,-666.67"/>
<text text-anchor="middle" x="404.68" y="-676.7" font-family="Times,serif" font-size="14.00">330</text>
</g>
<!-- 079031 -->
<g id="node11" class="node">
<title>079031</title>
<ellipse fill="none" stroke="black" cx="323.56" cy="-637.5" rx="38.56" ry="18"/>
<text text-anchor="middle" x="323.56" y="-632.45" font-family="Times,serif" font-size="14.00">079031</text>
</g>
<!-- 075017&#45;&gt;079031 -->
<g id="edge8" class="edge">
<title>075017&#45;&gt;079031</title>
<path fill="none" stroke="black" d="M352.09,-708.12C349.05,-702.44 345.77,-696.01 343.06,-690 339.62,-682.39 336.26,-673.98 333.32,-666.2"/>
<polygon fill="black" stroke="black" points="336.62,-665.02 329.88,-656.84 330.05,-667.43 336.62,-665.02"/>
<text text-anchor="middle" x="349.31" y="-676.7" font-family="Times,serif" font-size="14.00">50</text>
</g>
<!-- 079031&#45;&gt;105029 -->
<g id="edge15" class="edge">
<title>079031&#45;&gt;105029</title>
<path fill="none" stroke="black" d="M334.84,-620.23C343.5,-607.74 355.63,-590.26 365.61,-575.87"/>
<polygon fill="black" stroke="black" points="368.43,-577.95 371.25,-567.73 362.68,-573.96 368.43,-577.95"/>
<text text-anchor="middle" x="368.68" y="-588.2" font-family="Times,serif" font-size="14.00">188</text>
</g>
<!-- 075059 -->
<g id="node14" class="node">
<title>075059</title>
<ellipse fill="none" stroke="black" cx="288.56" cy="-549" rx="38.56" ry="18"/>
<text text-anchor="middle" x="288.56" y="-543.95" font-family="Times,serif" font-size="14.00">075059</text>
</g>
<!-- 079031&#45;&gt;075059 -->
<g id="edge14" class="edge">
<title>079031&#45;&gt;075059</title>
<path fill="none" stroke="black" d="M316.64,-619.41C311.8,-607.44 305.23,-591.2 299.66,-577.43"/>
<polygon fill="black" stroke="black" points="303.02,-576.41 296.02,-568.46 296.53,-579.04 303.02,-576.41"/>
<text text-anchor="middle" x="318.68" y="-588.2" font-family="Times,serif" font-size="14.00">128</text>
</g>
<!-- 061033&#45;&gt;079031 -->
<g id="edge17" class="edge">
<title>061033&#45;&gt;079031</title>
<path fill="none" stroke="black" d="M277.55,-708.32C285.75,-695.88 297.11,-678.64 306.49,-664.41"/>
<polygon fill="black" stroke="black" points="309.19,-666.67 311.77,-656.39 303.34,-662.81 309.19,-666.67"/>
<text text-anchor="middle" x="306.31" y="-676.7" font-family="Times,serif" font-size="14.00">48</text>
</g>
<!-- 059067 -->
<g id="node15" class="node">
<title>059067</title>
<ellipse fill="none" stroke="black" cx="228.56" cy="-637.5" rx="38.56" ry="18"/>
<text text-anchor="middle" x="228.56" y="-632.45" font-family="Times,serif" font-size="14.00">059067</text>
</g>
<!-- 061033&#45;&gt;059067 -->
<g id="edge16" class="edge">
<title>061033&#45;&gt;059067</title>
<path fill="none" stroke="black" d="M258.5,-707.96C255.85,-702.27 252.91,-695.88 250.31,-690 246.83,-682.16 243.16,-673.6 239.85,-665.74"/>
<polygon fill="black" stroke="black" points="243.14,-664.53 236.05,-656.66 236.68,-667.23 243.14,-664.53"/>
<text text-anchor="middle" x="260.68" y="-676.7" font-family="Times,serif" font-size="14.00">180</text>
</g>
<!-- 109053&#45;&gt;137057 -->
<g id="edge24" class="edge">
<title>109053&#45;&gt;137057</title>
<path fill="none" stroke="black" d="M329.29,-442.41C333.26,-430.56 338.64,-414.52 343.22,-400.84"/>
<polygon fill="black" stroke="black" points="346.5,-402.08 346.36,-391.49 339.86,-399.86 346.5,-402.08"/>
<text text-anchor="middle" x="350.68" y="-411.2" font-family="Times,serif" font-size="14.00">176</text>
</g>
<!-- 111079 -->
<g id="node19" class="node">
<title>111079</title>
<ellipse fill="none" stroke="black" cx="257.56" cy="-372" rx="38.56" ry="18"/>
<text text-anchor="middle" x="257.56" y="-366.95" font-family="Times,serif" font-size="14.00">111079</text>
</g>
<!-- 109053&#45;&gt;111079 -->
<g id="edge23" class="edge">
<title>109053&#45;&gt;111079</title>
<path fill="none" stroke="black" d="M311.14,-443.23C301.52,-430.62 288.02,-412.93 276.98,-398.45"/>
<polygon fill="black" stroke="black" points="279.91,-396.52 271.06,-390.69 274.34,-400.77 279.91,-396.52"/>
<text text-anchor="middle" x="305.68" y="-411.2" font-family="Times,serif" font-size="14.00">148</text>
</g>
<!-- 075059&#45;&gt;109053 -->
<g id="edge27" class="edge">
<title>075059&#45;&gt;109053</title>
<path fill="none" stroke="black" d="M295.47,-530.91C300.31,-518.94 306.89,-502.7 312.46,-488.93"/>
<polygon fill="black" stroke="black" points="315.58,-490.54 316.09,-479.96 309.09,-487.91 315.58,-490.54"/>
<text text-anchor="middle" x="318.68" y="-499.7" font-family="Times,serif" font-size="14.00">232</text>
</g>
<!-- 079079 -->
<g id="node21" class="node">
<title>079079</title>
<ellipse fill="none" stroke="black" cx="228.56" cy="-460.5" rx="38.56" ry="18"/>
<text text-anchor="middle" x="228.56" y="-455.45" font-family="Times,serif" font-size="14.00">079079</text>
</g>
<!-- 075059&#45;&gt;079079 -->
<g id="edge26" class="edge">
<title>075059&#45;&gt;079079</title>
<path fill="none" stroke="black" d="M277.27,-531.73C268.61,-519.24 256.48,-501.76 246.5,-487.37"/>
<polygon fill="black" stroke="black" points="249.43,-485.46 240.86,-479.23 243.68,-489.45 249.43,-485.46"/>
<text text-anchor="middle" x="274.68" y="-499.7" font-family="Times,serif" font-size="14.00">136</text>
</g>
<!-- 059067&#45;&gt;075059 -->
<g id="edge33" class="edge">
<title>059067&#45;&gt;075059</title>
<path fill="none" stroke="black" d="M239.84,-620.23C248.5,-607.74 260.63,-590.26 270.61,-575.87"/>
<polygon fill="black" stroke="black" points="273.43,-577.95 276.25,-567.73 267.68,-573.96 273.43,-577.95"/>
<text text-anchor="middle" x="271.31" y="-588.2" font-family="Times,serif" font-size="14.00">40</text>
</g>
<!-- 057079 -->
<g id="node24" class="node">
<title>057079</title>
<ellipse fill="none" stroke="black" cx="193.56" cy="-549" rx="38.56" ry="18"/>
<text text-anchor="middle" x="193.56" y="-543.95" font-family="Times,serif" font-size="14.00">057079</text>
</g>
<!-- 059067&#45;&gt;057079 -->
<g id="edge32" class="edge">
<title>059067&#45;&gt;057079</title>
<path fill="none" stroke="black" d="M217.64,-619.86C214.25,-614.2 210.7,-607.72 208.06,-601.5 204.92,-594.12 202.25,-585.86 200.09,-578.16"/>
<polygon fill="black" stroke="black" points="203.49,-577.33 197.58,-568.54 196.71,-579.09 203.49,-577.33"/>
<text text-anchor="middle" x="215.31" y="-588.2" font-family="Times,serif" font-size="14.00">70</text>
</g>
<!-- 009063&#45;&gt;041061 -->
<g id="edge31" class="edge">
<title>009063&#45;&gt;041061</title>
<path fill="none" stroke="black" d="M120.41,-797.23C129.59,-784.62 142.48,-766.93 153.02,-752.45"/>
<polygon fill="black" stroke="black" points="155.6,-754.86 158.65,-744.71 149.94,-750.74 155.6,-754.86"/>
<text text-anchor="middle" x="156.68" y="-765.2" font-family="Times,serif" font-size="14.00">182</text>
</g>
<!-- 015077 -->
<g id="node23" class="node">
<title>015077</title>
<ellipse fill="none" stroke="black" cx="76.56" cy="-726" rx="38.56" ry="18"/>
<text text-anchor="middle" x="76.56" y="-720.95" font-family="Times,serif" font-size="14.00">015077</text>
</g>
<!-- 009063&#45;&gt;015077 -->
<g id="edge30" class="edge">
<title>009063&#45;&gt;015077</title>
<path fill="none" stroke="black" d="M96.96,-797.01C93.42,-791.36 89.81,-784.85 87.31,-778.5 84.41,-771.17 82.25,-762.92 80.65,-755.21"/>
<polygon fill="black" stroke="black" points="84.14,-754.82 78.91,-745.61 77.25,-756.07 84.14,-754.82"/>
<text text-anchor="middle" x="97.68" y="-765.2" font-family="Times,serif" font-size="14.00">108</text>
</g>
<!-- 137085 -->
<g id="node20" class="node">
<title>137085</title>
<ellipse fill="none" stroke="black" cx="284.56" cy="-283.5" rx="38.56" ry="18"/>
<text text-anchor="middle" x="284.56" y="-278.45" font-family="Times,serif" font-size="14.00">137085</text>
</g>
<!-- 137057&#45;&gt;137085 -->
<g id="edge25" class="edge">
<title>137057&#45;&gt;137085</title>
<path fill="none" stroke="black" d="M339.77,-354.73C329.79,-342.04 315.77,-324.2 304.35,-309.68"/>
<polygon fill="black" stroke="black" points="307.16,-307.59 298.22,-301.89 301.65,-311.91 307.16,-307.59"/>
<text text-anchor="middle" x="334.68" y="-322.7" font-family="Times,serif" font-size="14.00">104</text>
</g>
<!-- 041061&#45;&gt;059067 -->
<g id="edge29" class="edge">
<title>041061&#45;&gt;059067</title>
<path fill="none" stroke="black" d="M182.55,-708.32C190.75,-695.88 202.11,-678.64 211.49,-664.41"/>
<polygon fill="black" stroke="black" points="214.19,-666.67 216.77,-656.39 208.34,-662.81 214.19,-666.67"/>
<text text-anchor="middle" x="212.31" y="-676.7" font-family="Times,serif" font-size="14.00">72</text>
</g>
<!-- 033075 -->
<g id="node22" class="node">
<title>033075</title>
<ellipse fill="none" stroke="black" cx="133.56" cy="-637.5" rx="38.56" ry="18"/>
<text text-anchor="middle" x="133.56" y="-632.45" font-family="Times,serif" font-size="14.00">033075</text>
</g>
<!-- 041061&#45;&gt;033075 -->
<g id="edge28" class="edge">
<title>041061&#45;&gt;033075</title>
<path fill="none" stroke="black" d="M160.21,-708.37C156.65,-702.7 152.91,-696.22 150.06,-690 146.63,-682.55 143.63,-674.19 141.15,-666.4"/>
<polygon fill="black" stroke="black" points="144.57,-665.61 138.35,-657.04 137.86,-667.62 144.57,-665.61"/>
<text text-anchor="middle" x="157.31" y="-676.7" font-family="Times,serif" font-size="14.00">78</text>
</g>
<!-- 111079&#45;&gt;137085 -->
<g id="edge43" class="edge">
<title>111079&#45;&gt;137085</title>
<path fill="none" stroke="black" d="M262.89,-353.91C266.59,-342.06 271.6,-326.02 275.87,-312.34"/>
<polygon fill="black" stroke="black" points="279.14,-313.59 278.78,-303 272.46,-311.5 279.14,-313.59"/>
<text text-anchor="middle" x="282.68" y="-322.7" font-family="Times,serif" font-size="14.00">176</text>
</g>
<!-- 109101 -->
<g id="node29" class="node">
<title>109101</title>
<ellipse fill="none" stroke="black" cx="189.56" cy="-283.5" rx="38.56" ry="18"/>
<text text-anchor="middle" x="189.56" y="-278.45" font-family="Times,serif" font-size="14.00">109101</text>
</g>
<!-- 111079&#45;&gt;109101 -->
<g id="edge42" class="edge">
<title>111079&#45;&gt;109101</title>
<path fill="none" stroke="black" d="M244.77,-354.73C234.79,-342.04 220.77,-324.2 209.35,-309.68"/>
<polygon fill="black" stroke="black" points="212.16,-307.59 203.22,-301.89 206.65,-311.91 212.16,-307.59"/>
<text text-anchor="middle" x="240.68" y="-322.7" font-family="Times,serif" font-size="14.00">140</text>
</g>
<!-- 135099 -->
<g id="node30" class="node">
<title>135099</title>
<ellipse fill="none" stroke="black" cx="220.56" cy="-195" rx="38.56" ry="18"/>
<text text-anchor="middle" x="220.56" y="-189.95" font-family="Times,serif" font-size="14.00">135099</text>
</g>
<!-- 137085&#45;&gt;135099 -->
<g id="edge44" class="edge">
<title>137085&#45;&gt;135099</title>
<path fill="none" stroke="black" d="M272.52,-266.23C263.19,-253.62 250.1,-235.93 239.39,-221.45"/>
<polygon fill="black" stroke="black" points="242.42,-219.66 233.66,-213.71 236.79,-223.83 242.42,-219.66"/>
<text text-anchor="middle" x="265.31" y="-234.2" font-family="Times,serif" font-size="14.00">56</text>
</g>
<!-- 079079&#45;&gt;111079 -->
<g id="edge41" class="edge">
<title>079079&#45;&gt;111079</title>
<path fill="none" stroke="black" d="M233.53,-442.24C236.5,-432.2 240.44,-419.32 244.31,-408 245.13,-405.6 246,-403.12 246.9,-400.64"/>
<polygon fill="black" stroke="black" points="250.12,-402.02 250.33,-391.43 243.56,-399.58 250.12,-402.02"/>
<text text-anchor="middle" x="254.68" y="-411.2" font-family="Times,serif" font-size="14.00">216</text>
</g>
<!-- 077099 -->
<g id="node28" class="node">
<title>077099</title>
<ellipse fill="none" stroke="black" cx="162.56" cy="-372" rx="38.56" ry="18"/>
<text text-anchor="middle" x="162.56" y="-366.95" font-family="Times,serif" font-size="14.00">077099</text>
</g>
<!-- 079079&#45;&gt;077099 -->
<g id="edge40" class="edge">
<title>079079&#45;&gt;077099</title>
<path fill="none" stroke="black" d="M216.14,-443.23C206.52,-430.62 193.02,-412.93 181.98,-398.45"/>
<polygon fill="black" stroke="black" points="184.91,-396.52 176.06,-390.69 179.34,-400.77 184.91,-396.52"/>
<text text-anchor="middle" x="208.31" y="-411.2" font-family="Times,serif" font-size="14.00">90</text>
</g>
<!-- 033075&#45;&gt;057079 -->
<g id="edge35" class="edge">
<title>033075&#45;&gt;057079</title>
<path fill="none" stroke="black" d="M144.84,-620.23C153.5,-607.74 165.63,-590.26 175.61,-575.87"/>
<polygon fill="black" stroke="black" points="178.43,-577.95 181.25,-567.73 172.68,-573.96 178.43,-577.95"/>
<text text-anchor="middle" x="179.68" y="-588.2" font-family="Times,serif" font-size="14.00">124</text>
</g>
<!-- 031111 -->
<g id="node25" class="node">
<title>031111</title>
<ellipse fill="none" stroke="black" cx="98.56" cy="-549" rx="38.56" ry="18"/>
<text text-anchor="middle" x="98.56" y="-543.95" font-family="Times,serif" font-size="14.00">031111</text>
</g>
<!-- 033075&#45;&gt;031111 -->
<g id="edge34" class="edge">
<title>033075&#45;&gt;031111</title>
<path fill="none" stroke="black" d="M120.26,-620.22C116.22,-614.57 112.11,-608.02 109.31,-601.5 106.19,-594.26 103.96,-586.04 102.36,-578.33"/>
<polygon fill="black" stroke="black" points="105.85,-577.95 100.66,-568.71 98.95,-579.17 105.85,-577.95"/>
<text text-anchor="middle" x="119.68" y="-588.2" font-family="Times,serif" font-size="14.00">218</text>
</g>
<!-- 015077&#45;&gt;033075 -->
<g id="edge37" class="edge">
<title>015077&#45;&gt;033075</title>
<path fill="none" stroke="black" d="M87.55,-708.32C95.75,-695.88 107.11,-678.64 116.49,-664.41"/>
<polygon fill="black" stroke="black" points="119.19,-666.67 121.77,-656.39 113.34,-662.81 119.19,-666.67"/>
<text text-anchor="middle" x="117.31" y="-676.7" font-family="Times,serif" font-size="14.00">88</text>
</g>
<!-- 011107 -->
<g id="node26" class="node">
<title>011107</title>
<ellipse fill="none" stroke="black" cx="38.56" cy="-637.5" rx="38.56" ry="18"/>
<text text-anchor="middle" x="38.56" y="-632.45" font-family="Times,serif" font-size="14.00">011107</text>
</g>
<!-- 015077&#45;&gt;011107 -->
<g id="edge36" class="edge">
<title>015077&#45;&gt;011107</title>
<path fill="none" stroke="black" d="M66.62,-708.18C63.45,-702.5 60.06,-696.06 57.31,-690 53.87,-682.43 50.6,-674.03 47.78,-666.25"/>
<polygon fill="black" stroke="black" points="51.11,-665.17 44.5,-656.89 44.5,-667.48 51.11,-665.17"/>
<text text-anchor="middle" x="67.68" y="-676.7" font-family="Times,serif" font-size="14.00">274</text>
</g>
<!-- 057079&#45;&gt;079079 -->
<g id="edge39" class="edge">
<title>057079&#45;&gt;079079</title>
<path fill="none" stroke="black" d="M200.33,-530.81C204.3,-520.79 209.42,-507.91 214.06,-496.5 215.02,-494.12 216.03,-491.66 217.04,-489.19"/>
<polygon fill="black" stroke="black" points="220.27,-490.55 220.85,-479.97 213.8,-487.88 220.27,-490.55"/>
<text text-anchor="middle" x="221.31" y="-499.7" font-family="Times,serif" font-size="14.00">94</text>
</g>
<!-- 061103 -->
<g id="node27" class="node">
<title>061103</title>
<ellipse fill="none" stroke="black" cx="133.56" cy="-460.5" rx="38.56" ry="18"/>
<text text-anchor="middle" x="133.56" y="-455.45" font-family="Times,serif" font-size="14.00">061103</text>
</g>
<!-- 057079&#45;&gt;061103 -->
<g id="edge38" class="edge">
<title>057079&#45;&gt;061103</title>
<path fill="none" stroke="black" d="M182.27,-531.73C173.61,-519.24 161.48,-501.76 151.5,-487.37"/>
<polygon fill="black" stroke="black" points="154.43,-485.46 145.86,-479.23 148.68,-489.45 154.43,-485.46"/>
<text text-anchor="middle" x="179.68" y="-499.7" font-family="Times,serif" font-size="14.00">132</text>
</g>
<!-- 031111&#45;&gt;061103 -->
<g id="edge55" class="edge">
<title>031111&#45;&gt;061103</title>
<path fill="none" stroke="black" d="M102.32,-530.94C104.85,-520.73 108.58,-507.63 113.31,-496.5 114.5,-493.69 115.87,-490.82 117.33,-488"/>
<polygon fill="black" stroke="black" points="120.27,-489.92 122.07,-479.48 114.15,-486.52 120.27,-489.92"/>
<text text-anchor="middle" x="123.68" y="-499.7" font-family="Times,serif" font-size="14.00">226</text>
</g>
<!-- 037131 -->
<g id="node35" class="node">
<title>037131</title>
<ellipse fill="none" stroke="black" cx="38.56" cy="-460.5" rx="38.56" ry="18"/>
<text text-anchor="middle" x="38.56" y="-455.45" font-family="Times,serif" font-size="14.00">037131</text>
</g>
<!-- 031111&#45;&gt;037131 -->
<g id="edge54" class="edge">
<title>031111&#45;&gt;037131</title>
<path fill="none" stroke="black" d="M87.27,-531.73C78.61,-519.24 66.48,-501.76 56.5,-487.37"/>
<polygon fill="black" stroke="black" points="59.43,-485.46 50.86,-479.23 53.68,-489.45 59.43,-485.46"/>
<text text-anchor="middle" x="84.68" y="-499.7" font-family="Times,serif" font-size="14.00">178</text>
</g>
<!-- 011107&#45;&gt;031111 -->
<g id="edge53" class="edge">
<title>011107&#45;&gt;031111</title>
<path fill="none" stroke="black" d="M49.84,-620.23C58.5,-607.74 70.63,-590.26 80.61,-575.87"/>
<polygon fill="black" stroke="black" points="83.43,-577.95 86.25,-567.73 77.68,-573.96 83.43,-577.95"/>
<text text-anchor="middle" x="81.31" y="-588.2" font-family="Times,serif" font-size="14.00">84</text>
</g>
<!-- 011107&#45;&gt;037131 -->
<g id="edge52" class="edge">
<title>011107&#45;&gt;037131</title>
<path fill="none" stroke="black" d="M35.92,-619.13C33.92,-605.1 31.36,-584.83 30.31,-567 29.36,-551.03 29.36,-546.97 30.31,-531 31.11,-517.49 32.77,-502.58 34.4,-490.04"/>
<polygon fill="black" stroke="black" points="37.83,-490.75 35.71,-480.37 30.9,-489.81 37.83,-490.75"/>
<text text-anchor="middle" x="40.68" y="-543.95" font-family="Times,serif" font-size="14.00">390</text>
</g>
<!-- 061103&#45;&gt;077099 -->
<g id="edge51" class="edge">
<title>061103&#45;&gt;077099</title>
<path fill="none" stroke="black" d="M139.29,-442.41C143.26,-430.56 148.64,-414.52 153.22,-400.84"/>
<polygon fill="black" stroke="black" points="156.5,-402.08 156.36,-391.49 149.86,-399.86 156.5,-402.08"/>
<text text-anchor="middle" x="158.31" y="-411.2" font-family="Times,serif" font-size="14.00">92</text>
</g>
<!-- 059133 -->
<g id="node34" class="node">
<title>059133</title>
<ellipse fill="none" stroke="black" cx="67.56" cy="-372" rx="38.56" ry="18"/>
<text text-anchor="middle" x="67.56" y="-366.95" font-family="Times,serif" font-size="14.00">059133</text>
</g>
<!-- 061103&#45;&gt;059133 -->
<g id="edge50" class="edge">
<title>061103&#45;&gt;059133</title>
<path fill="none" stroke="black" d="M121.14,-443.23C111.52,-430.62 98.02,-412.93 86.98,-398.45"/>
<polygon fill="black" stroke="black" points="89.91,-396.52 81.06,-390.69 84.34,-400.77 89.91,-396.52"/>
<text text-anchor="middle" x="116.68" y="-411.2" font-family="Times,serif" font-size="14.00">252</text>
</g>
<!-- 077099&#45;&gt;109101 -->
<g id="edge46" class="edge">
<title>077099&#45;&gt;109101</title>
<path fill="none" stroke="black" d="M167.75,-353.81C170.79,-343.79 174.73,-330.92 178.31,-319.5 179.02,-317.22 179.77,-314.85 180.52,-312.48"/>
<polygon fill="black" stroke="black" points="183.84,-313.61 183.55,-303.02 177.17,-311.47 183.84,-313.61"/>
<text text-anchor="middle" x="188.68" y="-322.7" font-family="Times,serif" font-size="14.00">162</text>
</g>
<!-- 085135 -->
<g id="node31" class="node">
<title>085135</title>
<ellipse fill="none" stroke="black" cx="94.56" cy="-283.5" rx="38.56" ry="18"/>
<text text-anchor="middle" x="94.56" y="-278.45" font-family="Times,serif" font-size="14.00">085135</text>
</g>
<!-- 077099&#45;&gt;085135 -->
<g id="edge45" class="edge">
<title>077099&#45;&gt;085135</title>
<path fill="none" stroke="black" d="M149.77,-354.73C139.79,-342.04 125.77,-324.2 114.35,-309.68"/>
<polygon fill="black" stroke="black" points="117.16,-307.59 108.22,-301.89 111.65,-311.91 117.16,-307.59"/>
<text text-anchor="middle" x="145.68" y="-322.7" font-family="Times,serif" font-size="14.00">212</text>
</g>
<!-- 109101&#45;&gt;135099 -->
<g id="edge49" class="edge">
<title>109101&#45;&gt;135099</title>
<path fill="none" stroke="black" d="M195.68,-265.41C199.93,-253.56 205.68,-237.52 210.58,-223.84"/>
<polygon fill="black" stroke="black" points="213.85,-225.07 213.93,-214.48 207.27,-222.71 213.85,-225.07"/>
<text text-anchor="middle" x="218.68" y="-234.2" font-family="Times,serif" font-size="14.00">152</text>
</g>
<!-- 099135 -->
<g id="node33" class="node">
<title>099135</title>
<ellipse fill="none" stroke="black" cx="125.56" cy="-195" rx="38.56" ry="18"/>
<text text-anchor="middle" x="125.56" y="-189.95" font-family="Times,serif" font-size="14.00">099135</text>
</g>
<!-- 109101&#45;&gt;099135 -->
<g id="edge48" class="edge">
<title>109101&#45;&gt;099135</title>
<path fill="none" stroke="black" d="M177.52,-266.23C168.19,-253.62 155.1,-235.93 144.39,-221.45"/>
<polygon fill="black" stroke="black" points="147.42,-219.66 138.66,-213.71 141.79,-223.83 147.42,-219.66"/>
<text text-anchor="middle" x="173.68" y="-234.2" font-family="Times,serif" font-size="14.00">208</text>
</g>
<!-- 127123 -->
<g id="node32" class="node">
<title>127123</title>
<ellipse fill="none" stroke="black" cx="172.56" cy="-106.5" rx="38.56" ry="18"/>
<text text-anchor="middle" x="172.56" y="-101.45" font-family="Times,serif" font-size="14.00">127123</text>
</g>
<!-- 135099&#45;&gt;127123 -->
<g id="edge47" class="edge">
<title>135099&#45;&gt;127123</title>
<path fill="none" stroke="black" d="M211.3,-177.32C204.51,-165.08 195.13,-148.19 187.31,-134.09"/>
<polygon fill="black" stroke="black" points="190.59,-132.79 182.68,-125.75 184.47,-136.19 190.59,-132.79"/>
<text text-anchor="middle" x="211.68" y="-145.7" font-family="Times,serif" font-size="14.00">176</text>
</g>
<!-- 085135&#45;&gt;099135 -->
<g id="edge59" class="edge">
<title>085135&#45;&gt;099135</title>
<path fill="none" stroke="black" d="M100.68,-265.41C104.93,-253.56 110.68,-237.52 115.58,-223.84"/>
<polygon fill="black" stroke="black" points="118.85,-225.07 118.93,-214.48 112.27,-222.71 118.85,-225.07"/>
<text text-anchor="middle" x="120.31" y="-234.2" font-family="Times,serif" font-size="14.00">46</text>
</g>
<!-- 139140 -->
<g id="node36" class="node">
<title>139140</title>
<ellipse fill="none" stroke="black" cx="172.56" cy="-18" rx="38.56" ry="18"/>
<text text-anchor="middle" x="172.56" y="-12.95" font-family="Times,serif" font-size="14.00">139140</text>
</g>
<!-- 127123&#45;&gt;139140 -->
<g id="edge56" class="edge">
<title>127123&#45;&gt;139140</title>
<path fill="none" stroke="black" d="M172.56,-88.41C172.56,-76.76 172.56,-61.05 172.56,-47.52"/>
<polygon fill="black" stroke="black" points="176.06,-47.86 172.56,-37.86 169.06,-47.86 176.06,-47.86"/>
<text text-anchor="middle" x="182.68" y="-57.2" font-family="Times,serif" font-size="14.00">145</text>
</g>
<!-- 099135&#45;&gt;127123 -->
<g id="edge60" class="edge">
<title>099135&#45;&gt;127123</title>
<path fill="none" stroke="black" d="M134.62,-177.32C141.21,-165.19 150.27,-148.52 157.89,-134.5"/>
<polygon fill="black" stroke="black" points="160.94,-136.21 162.64,-125.75 154.79,-132.87 160.94,-136.21"/>
<text text-anchor="middle" x="163.68" y="-145.7" font-family="Times,serif" font-size="14.00">264</text>
</g>
<!-- 059133&#45;&gt;085135 -->
<g id="edge58" class="edge">
<title>059133&#45;&gt;085135</title>
<path fill="none" stroke="black" d="M72.23,-353.76C75.01,-343.72 78.7,-330.85 82.31,-319.5 83.07,-317.11 83.88,-314.63 84.71,-312.15"/>
<polygon fill="black" stroke="black" points="87.93,-313.55 87.88,-302.95 81.32,-311.27 87.93,-313.55"/>
<text text-anchor="middle" x="92.68" y="-322.7" font-family="Times,serif" font-size="14.00">156</text>
</g>
<!-- 037131&#45;&gt;059133 -->
<g id="edge57" class="edge">
<title>037131&#45;&gt;059133</title>
<path fill="none" stroke="black" d="M44.04,-442.3C47.27,-432.28 51.46,-419.4 55.31,-408 56.11,-405.62 56.95,-403.15 57.8,-400.68"/>
<polygon fill="black" stroke="black" points="61.02,-402.09 61,-391.49 54.41,-399.79 61.02,-402.09"/>
<text text-anchor="middle" x="65.68" y="-411.2" font-family="Times,serif" font-size="14.00">108</text>
</g>
</g>
</svg>
